<svg id="icon_violin" xmlns="http://www.w3.org/2000/svg" viewBox="0 0 35.44 37.15"><title>icon_violin</title><g id="Слой_2" data-name="Слой 2"><g id="Слой_1-2" data-name="Слой 1"><path d="M16.8,25c-.31.56-2.43,2.76-2.69,3.51s0,1,.19,1.11a.49.49,0,0,0,.45,0s0-.49.36-.36.46.25.43.55-.79.56-1.29.44a1.07,1.07,0,0,1-.88-1.07,3.84,3.84,0,0,1,.85-2.12,23.56,23.56,0,0,0,2-2.28c.14-.35.14-.51,0-.66A.64.64,0,0,0,15.8,24s-.16.27-.4.23-.4-.52-.2-.63,1-.36,1.29-.07A1.24,1.24,0,0,1,16.8,25m-3.46-2.85c-.11.2-.59,0-.63-.19s.22-.4.22-.4a.64.64,0,0,0-.15-.43c-.15-.14-.32-.14-.66,0a23.86,23.86,0,0,0-2.24,2.06,3.84,3.84,0,0,1-2.11.89,1.07,1.07,0,0,1-1.09-.86c-.13-.5.12-1.27.42-1.3s.43.1.56.42-.36.37-.36.37a.5.5,0,0,0,.06.45c.15.22.37.44,1.11.16s2.91-2.43,3.46-2.75a1.24,1.24,0,0,1,1.45.29c.3.3.07,1.09,0,1.29M34.91,1.06s.78-.61.45-1-1,.42-1,.42S34,.07,33.69.21s0,.6,0,.6l0,.34h-.45l-.08.56-.46.41-.35-.33.11-.12A.31.31,0,1,0,32,1.23l-.53.56a.31.31,0,1,0,.45.43L32,2.1l.32.31-.85.75-.24-.23.11-.12a.31.31,0,1,0-.45-.43l-.53.56a.31.31,0,0,0,.45.43l.11-.12.21.2-1.1,1-.14.85s-6.93,7.1-7.36,7.48a2.27,2.27,0,0,1-2.06.46,27.68,27.68,0,0,0-4.14-.55,5.35,5.35,0,0,0-3.6,2.12c-.49.67-1.32,2.17-1.32,2.17a2,2,0,0,1,.54.81c.11.43,0,1.31-1.28,2.39a5.05,5.05,0,0,1-3.17,1.25c-.44-.05-.86-1-.86-1l-3.38,2A7.7,7.7,0,0,0,.6,25.4a6.14,6.14,0,0,0-.39,4.14A22.91,22.91,0,0,0,3.1,33.67a.52.52,0,0,0,0,.65c.28.33.72.07.72.07A8.47,8.47,0,0,0,7.5,36.67a5.4,5.4,0,0,0,5.08-.31,10.86,10.86,0,0,0,3-3.22,28.17,28.17,0,0,0,1.51-3s-.26,0-.82-.48-.07-2.27.93-3.59a2.73,2.73,0,0,1,2.5-1.37,1.11,1.11,0,0,1,.77.53A22.31,22.31,0,0,0,23,23.36c1.22-1.09,1.39-3.82,1.23-4.71s-.7-2.28-.84-2.9a3,3,0,0,1,.4-2c.27-.33,7.08-8,7.08-8l.8-.22.76-1.07.2.19-.11.12a.31.31,0,1,0,.45.43l.53-.56A.31.31,0,0,0,33,4.26l-.11.12-.24-.23.64-.89.28.27-.11.12a.31.31,0,1,0,.45.43l.53-.56A.31.31,0,1,0,34,3.08l-.11.12-.33-.32L34,2.25l.48-.06-.07-.46.28,0s.25.28.5.06-.31-.74-.31-.74"/></g></g></svg>