<svg id="mail" xmlns="http://www.w3.org/2000/svg" viewBox="0 0 20.49 16.1"><title>icon_mail</title><g id="Слой_2" data-name="Слой 2"><g id="Слой_1-2" data-name="Слой 1"><path d="M20.49,5.19v9.08a1.84,1.84,0,0,1-1.83,1.83H1.83a1.76,1.76,0,0,1-1.29-.54A1.76,1.76,0,0,1,0,14.27V5.19a6.1,6.1,0,0,0,1.16,1Q5.29,9,6.84,10.13q.65.48,1.06.75A6.43,6.43,0,0,0,9,11.43a3.31,3.31,0,0,0,1.26.28h0a3.31,3.31,0,0,0,1.26-.28,6.49,6.49,0,0,0,1.08-.55q.41-.27,1.06-.75,1.94-1.41,5.69-3.94a6.39,6.39,0,0,0,1.14-1m0-3.36a3,3,0,0,1-.56,1.73A5.42,5.42,0,0,1,18.53,5L13.18,8.68,12.7,9l-.62.43-.59.37a3.45,3.45,0,0,1-.66.31,1.8,1.8,0,0,1-.57.1h0a1.8,1.8,0,0,1-.57-.1A3.45,3.45,0,0,1,9,9.83l-.59-.37L7.79,9l-.49-.35-3-2.09L2,5A5.66,5.66,0,0,1,.63,3.64,2.67,2.67,0,0,1,0,2.08,2.31,2.31,0,0,1,.48.59,1.63,1.63,0,0,1,1.83,0H18.66a1.76,1.76,0,0,1,1.29.54,1.75,1.75,0,0,1,.54,1.29"/></g></g></svg>