<svg id="compare" xmlns="http://www.w3.org/2000/svg" viewBox="0 0 15.1 11.32"><title>icon_compare</title><g id="Слой_2" data-name="Слой 2"><g id="Слой_1-2" data-name="Слой 1"><path d="M15.1,7.55V9.17a.26.26,0,0,1-.08.19.26.26,0,0,1-.19.08H3.24v1.62a.27.27,0,0,1-.27.27.32.32,0,0,1-.2-.08L.08,8.54A.25.25,0,0,1,0,8.36a.26.26,0,0,1,.08-.19l2.7-2.7a.27.27,0,0,1,.46.19V7.28H14.83a.27.27,0,0,1,.27.27M15.1,3a.26.26,0,0,1-.08.19l-2.7,2.7a.27.27,0,0,1-.19.08.27.27,0,0,1-.27-.27V4H.27A.26.26,0,0,1,.08,4,.26.26,0,0,1,0,3.77V2.16A.26.26,0,0,1,.08,2a.26.26,0,0,1,.19-.08H11.86V.27a.26.26,0,0,1,.07-.19A.27.27,0,0,1,12.13,0a.32.32,0,0,1,.2.09L15,2.77A.26.26,0,0,1,15.1,3"/></g></g></svg>