<svg id="hide-menu" xmlns="http://www.w3.org/2000/svg" viewBox="0 0 10.29 8.57"><title>icon_hide_menu</title><g id="Слой_2" data-name="Слой 2"><g id="Слой_1-2" data-name="Слой 1"><path d="M10.29.43v.86a.41.41,0,0,1-.13.3.41.41,0,0,1-.3.13H.43a.41.41,0,0,1-.3-.13A.41.41,0,0,1,0,1.29V.43A.41.41,0,0,1,.13.13.41.41,0,0,1,.43,0H9.86a.41.41,0,0,1,.3.13A.41.41,0,0,1,10.29.43Zm0,3.43v.86a.43.43,0,0,1-.43.43H.43A.41.41,0,0,1,.13,5,.41.41,0,0,1,0,4.71V3.86a.41.41,0,0,1,.13-.3.41.41,0,0,1,.3-.13H9.86a.43.43,0,0,1,.43.43Zm0,3.43v.86a.43.43,0,0,1-.43.43H.43a.41.41,0,0,1-.3-.13A.41.41,0,0,1,0,8.14V7.29A.41.41,0,0,1,.13,7a.41.41,0,0,1,.3-.13H9.86a.43.43,0,0,1,.43.43Z"/></g></g></svg>