<svg id="entry" xmlns="http://www.w3.org/2000/svg" viewBox="0 0 17.47 14.56"><title>icon_entry</title><g id="Слой_2" data-name="Слой 2"><g id="Слой_1-2" data-name="Слой 1"><path d="M17.47,3.28v8a3.28,3.28,0,0,1-3.28,3.28H10.56a.35.35,0,0,1-.26-.11.35.35,0,0,1-.11-.26s0-.11,0-.23,0-.22,0-.3a2.09,2.09,0,0,1,0-.27.37.37,0,0,1,.11-.22.34.34,0,0,1,.23-.07h3.64A1.82,1.82,0,0,0,16,11.28v-8A1.75,1.75,0,0,0,15.48,2a1.76,1.76,0,0,0-1.29-.53H10.52l-.13,0-.09-.06a.22.22,0,0,1-.08-.1.46.46,0,0,1,0-.16s0-.11,0-.23,0-.22,0-.3a2.16,2.16,0,0,1,0-.27.38.38,0,0,1,.11-.22A.35.35,0,0,1,10.56,0h3.64a3.16,3.16,0,0,1,2.31,1,3.16,3.16,0,0,1,1,2.32m-4,4a.7.7,0,0,1-.22.51L7.06,14a.71.71,0,0,1-1,0,.69.69,0,0,1-.22-.51V10.19H.73A.7.7,0,0,1,.22,10,.7.7,0,0,1,0,9.46V5.1a.7.7,0,0,1,.22-.51.71.71,0,0,1,.51-.22h5.1V1.09A.69.69,0,0,1,6,.58a.71.71,0,0,1,1,0l6.19,6.19A.7.7,0,0,1,13.47,7.28Z"/></g></g></svg>