<svg id="icon_kard" xmlns="http://www.w3.org/2000/svg" viewBox="0 0 36.78 29.42"><title>icon_kard</title><g id="Слой_2" data-name="Слой 2"><g id="Слой_1-2" data-name="Слой 1"><path d="M12.26,22.07h7.35v2.45H12.26Zm-7.35,0h4.9v2.45H4.9ZM33.71,27a.62.62,0,0,0,.61-.61V14.71H2.45V26.36a.62.62,0,0,0,.61.61ZM3.07,2.45a.62.62,0,0,0-.61.61V7.36H34.33V3.06a.62.62,0,0,0-.61-.61ZM33.71,0a3,3,0,0,1,2.16.9,3,3,0,0,1,.9,2.17V26.36a3.07,3.07,0,0,1-3.06,3.06H3.07a3,3,0,0,1-2.16-.9A3,3,0,0,1,0,26.36V3.06A3,3,0,0,1,.9.9,3,3,0,0,1,3.07,0Z"/></g></g></svg>