<svg id="tw" xmlns="http://www.w3.org/2000/svg" viewBox="0 0 20.4 16.57"><title>icon_tw</title><g id="Слой_2" data-name="Слой 2"><g id="Слой_1-2" data-name="Слой 1"><path d="M20.4,2a8.76,8.76,0,0,1-2.1,2.16c0,.12,0,.3,0,.54A11.87,11.87,0,0,1,17.82,8a12.16,12.16,0,0,1-1.49,3.22A12.64,12.64,0,0,1,13.94,14a10.65,10.65,0,0,1-3.34,1.89,12.18,12.18,0,0,1-4.18.71A11.61,11.61,0,0,1,0,14.69a9.09,9.09,0,0,0,1,.05A8.19,8.19,0,0,0,6.2,13a4.19,4.19,0,0,1-3.91-2.9,5.17,5.17,0,0,0,.79.06A4.36,4.36,0,0,0,4.18,10a4.11,4.11,0,0,1-2.4-1.44,4,4,0,0,1-1-2.66V5.83a4.18,4.18,0,0,0,1.89.53A4.18,4.18,0,0,1,1.36,4.87a4.08,4.08,0,0,1-.5-2A4.11,4.11,0,0,1,1.42.76,11.81,11.81,0,0,0,5.24,3.85,11.63,11.63,0,0,0,10,5.14a4.6,4.6,0,0,1-.1-1,4,4,0,0,1,1.22-3,4.19,4.19,0,0,1,6,.1,8.22,8.22,0,0,0,2.65-1A4.07,4.07,0,0,1,18,2.61,8.31,8.31,0,0,0,20.4,2"/></g></g></svg>