<svg id="favourites" xmlns="http://www.w3.org/2000/svg" viewBox="0 0 16.99 14.56"><title>icon_favourites</title><g id="Слой_2" data-name="Слой 2"><g id="Слой_1-2" data-name="Слой 1"><path d="M8.49,14.56a.57.57,0,0,1-.42-.17L2.16,8.68a2.89,2.89,0,0,1-.26-.25q-.17-.17-.53-.62a8.1,8.1,0,0,1-.64-.93A5.73,5.73,0,0,1,.22,5.75,4.14,4.14,0,0,1,0,4.44,4.35,4.35,0,0,1,1.2,1.17,4.57,4.57,0,0,1,4.53,0a3.75,3.75,0,0,1,1.2.2A4.78,4.78,0,0,1,6.87.75q.53.34.91.65A9,9,0,0,1,8.49,2a8.84,8.84,0,0,1,.72-.64q.38-.3.91-.65A4.78,4.78,0,0,1,11.26.2a3.75,3.75,0,0,1,1.2-.2,4.57,4.57,0,0,1,3.33,1.17A4.35,4.35,0,0,1,17,4.44,6.2,6.2,0,0,1,14.82,8.7l-5.9,5.69A.57.57,0,0,1,8.49,14.56Z"/></g></g></svg>