<svg id="basket" xmlns="http://www.w3.org/2000/svg" viewBox="0 0 28 23.69"><title>icon_basket</title><g id="Слой_2" data-name="Слой 2"><g id="Слой_1-2" data-name="Слой 1"><path d="M25.21,20a2.15,2.15,0,1,1-1.52-.63,2.08,2.08,0,0,1,1.52.63M10.14,20a2.15,2.15,0,0,1-1.52,3.68A2.15,2.15,0,1,1,10.14,20M28,3.23v8.61a1.07,1.07,0,0,1-.27.72,1.06,1.06,0,0,1-.69.36L9.47,15c0,.08,0,.2.08.36s.07.31.1.45a1.83,1.83,0,0,1,0,.37,3.23,3.23,0,0,1-.4,1.08H24.77a1.08,1.08,0,0,1,0,2.15H7.54a1.09,1.09,0,0,1-1.08-1.08,1.82,1.82,0,0,1,.18-.66q.19-.43.5-1L7.49,16l-3-13.85H1.08a1,1,0,0,1-.76-.32A1,1,0,0,1,0,1.08,1,1,0,0,1,.32.32,1,1,0,0,1,1.08,0H5.39a1,1,0,0,1,.48.11A1.1,1.1,0,0,1,6.2.37a1.35,1.35,0,0,1,.22.41,3.21,3.21,0,0,1,.13.44l.09.5c0,.21.06.35.08.43H26.92A1.09,1.09,0,0,1,28,3.23"/></g></g></svg>