<svg id="search" xmlns="http://www.w3.org/2000/svg" viewBox="0 0 22.76 22.76"><title>icon_search</title><g id="Слой_2" data-name="Слой 2"><g id="Слой_1-2" data-name="Слой 1"><path d="M14,14a5.9,5.9,0,0,0,1.8-4.33A5.9,5.9,0,0,0,14,5.3,5.9,5.9,0,0,0,9.63,3.5,5.9,5.9,0,0,0,5.3,5.3,5.91,5.91,0,0,0,3.5,9.63,5.91,5.91,0,0,0,5.3,14a5.9,5.9,0,0,0,4.33,1.8A5.9,5.9,0,0,0,14,14M22.76,21A1.78,1.78,0,0,1,21,22.76a1.62,1.62,0,0,1-1.23-.52l-4.69-4.68a9.37,9.37,0,0,1-5.46,1.69,9.45,9.45,0,0,1-3.74-.76A9.43,9.43,0,0,1,.76,13.37a9.6,9.6,0,0,1,0-7.48A9.43,9.43,0,0,1,5.89.76a9.59,9.59,0,0,1,7.48,0A9.43,9.43,0,0,1,18.5,5.89a9.47,9.47,0,0,1,.76,3.74,9.38,9.38,0,0,1-1.7,5.46l4.69,4.69A1.67,1.67,0,0,1,22.76,21"/></g></g></svg>