<svg id="tel" xmlns="http://www.w3.org/2000/svg" viewBox="0 0 19.48 19.49"><title>icon_tel</title><g id="Слой_2" data-name="Слой 2"><g id="Слой_1-2" data-name="Слой 1"><path d="M19.48,15.39a4.59,4.59,0,0,1-.14,1,5.56,5.56,0,0,1-.29.95,3.71,3.71,0,0,1-1.69,1.47,5.15,5.15,0,0,1-3.3.66,6,6,0,0,1-.8-.17l-.66-.2-.77-.28-.68-.25a12.61,12.61,0,0,1-2.42-1.15,20.61,20.61,0,0,1-3.66-3,20.44,20.44,0,0,1-3-3.66A12.55,12.55,0,0,1,1,8.32c0-.08-.11-.31-.25-.68L.42,6.88c-.05-.14-.12-.36-.2-.66A6.13,6.13,0,0,1,0,5.42a5.19,5.19,0,0,1,.66-3.3A3.71,3.71,0,0,1,2.17.44,5.34,5.34,0,0,1,3.12.15,2.27,2.27,0,0,1,4.39,0q.25.08.73,1.05L6,2.73l.43.74.24.35A3.88,3.88,0,0,1,7,4.3a.83.83,0,0,1-.3,1.09,6.84,6.84,0,0,1-.86.76A8.42,8.42,0,0,0,5,6.88a.73.73,0,0,0-.32.95,2.4,2.4,0,0,0,.12.28c0,.06.1.18.19.33l.16.26A14.45,14.45,0,0,0,7.53,12a14.48,14.48,0,0,0,3.25,2.41l.26.16.33.19.28.12a.73.73,0,0,0,.95-.32,8.32,8.32,0,0,0,.73-.86,6.68,6.68,0,0,1,.76-.86.83.83,0,0,1,1.09-.3,3.81,3.81,0,0,1,.49.3L16,13l.74.43.88.48.75.42q1,.48,1.05.73a.79.79,0,0,1,0,.29"/></g></g></svg>