<svg id="vk" xmlns="http://www.w3.org/2000/svg" viewBox="0 0 24.86 14.18"><title>icon_vk</title><g id="Слой_2" data-name="Слой 2"><g id="Слой_1-2" data-name="Слой 1"><path d="M24.83,1q.3.83-1.94,3.81L22,5.93a9.76,9.76,0,0,0-1.17,1.69,1,1,0,0,0,.18,1,14.92,14.92,0,0,0,1,1.06h0l0,0a12.9,12.9,0,0,1,2.47,2.86l.08.16a1.59,1.59,0,0,1,.09.34,1,1,0,0,1,0,.44,1,1,0,0,1-1.09.52l-3.31.05a1.47,1.47,0,0,1-.72-.06,3.15,3.15,0,0,1-.67-.28l-.26-.15a6.09,6.09,0,0,1-.91-.83q-.52-.56-.89-1a4.27,4.27,0,0,0-.79-.75.82.82,0,0,0-.73-.2l-.1,0a1.12,1.12,0,0,0-.22.19,1.62,1.62,0,0,0-.28.38,2.58,2.58,0,0,0-.22.67,4.18,4.18,0,0,0-.08,1,1.28,1.28,0,0,1,0,.36.91.91,0,0,1-.1.24l-.05.06a1,1,0,0,1-.69.29H12.17a5.92,5.92,0,0,1-1.89-.21,7.2,7.2,0,0,1-1.7-.69,15.4,15.4,0,0,1-1.33-.85,7.68,7.68,0,0,1-.91-.75L6,11.3l-.36-.39q-.23-.26-.93-1.18t-1.37-2q-.67-1-1.58-2.73T.08,1.53A.72.72,0,0,1,0,1L.09.9A.9.9,0,0,1,.83.65l3.55,0a1.42,1.42,0,0,1,.3.08.94.94,0,0,1,.21.11l.06,0a.84.84,0,0,1,.31.41q.26.65.6,1.34t.53,1.06L6.59,4a15.23,15.23,0,0,0,.72,1.35,6.58,6.58,0,0,0,.63.89,3.06,3.06,0,0,0,.54.5.73.73,0,0,0,.79.11.74.74,0,0,0,.22-.35,2.08,2.08,0,0,0,.17-.61q.06-.38.12-1a10.08,10.08,0,0,0,0-1.62,6,6,0,0,0-.12-.94,2.52,2.52,0,0,0-.18-.6l-.08-.15A1.59,1.59,0,0,0,8.31,1C8.2,1,8.22.89,8.38.7A1.75,1.75,0,0,1,8.87.31,8.5,8.5,0,0,1,12,0a8.59,8.59,0,0,1,1.75.17,1.49,1.49,0,0,1,.43.17.69.69,0,0,1,.27.31,2,2,0,0,1,.14.41,7,7,0,0,1,0,1.3q0,.34,0,.91,0,.81,0,1.61c0,.27,0,.48,0,.62s0,.32,0,.52a1.41,1.41,0,0,0,.15.51.85.85,0,0,0,.29.32l.22.05q.12,0,.34-.14A4.83,4.83,0,0,0,16,6.32a6.49,6.49,0,0,0,.67-.87q.4-.59.88-1.39A21.12,21.12,0,0,0,19,1.15a.89.89,0,0,1,.13-.23.52.52,0,0,1,.14-.14l.05,0,.07,0,.17,0a1.11,1.11,0,0,1,.26,0l3.73,0a2,2,0,0,1,.83,0,.74.74,0,0,1,.4.22Z"/></g></g></svg>