<svg id="icon_drum" xmlns="http://www.w3.org/2000/svg" viewBox="0 0 31.56 30.13"><title>icon_drum</title><g id="Слой_2" data-name="Слой 2"><g id="Слой_1-2" data-name="Слой 1"><path d="M31.56,1.5V0H17.22V1.5h.53V4.78H13.81V1.5h.53V0H0V1.5H.53V9.15H0v1.5H14.34V9.15h-.53V6.63h1.41v13a1.5,1.5,0,0,0-.54,1.2,1.7,1.7,0,0,0,0,.24l-5.52,7H8.7l-1.58,2H9.49l1.58-2h-.52l4.74-6a.9.9,0,0,0,.5.16.92.92,0,0,0,.58-.22l4.78,6.08h-.58l1.58,2h2.37l-1.58-2H22.5L16.86,21s0-.06,0-.1a1.54,1.54,0,0,0-.47-1.14V6.63h1.34V9.15h-.53v1.5H31.56V9.15H31V1.5Z"/></g></g></svg>