<svg id="icon_hammer" xmlns="http://www.w3.org/2000/svg" viewBox="0 0 33.13 33.12"><title>icon_hammer</title><g id="Слой_2" data-name="Слой 2"><g id="Слой_1-2" data-name="Слой 1"><path d="M33.13,28.63a2.35,2.35,0,0,1-.71,1.72l-2,2.07a2.45,2.45,0,0,1-1.74.71,2.34,2.34,0,0,1-1.72-.71l-6.95-7a2.28,2.28,0,0,1-.73-1.72,2.55,2.55,0,0,1,.82-1.84L15.16,17,12.74,19.4a.92.92,0,0,1-1.3,0l.24.23.24.25a2,2,0,0,0,.19.22,1,1,0,0,1,.19.26l.11.26a1.29,1.29,0,0,1,.11.32,2,2,0,0,1,0,.35,1.85,1.85,0,0,1-.54,1.3l-.32.35-.36.39-.35.32a2.29,2.29,0,0,1-.42.3,3.51,3.51,0,0,1-.42.17,1.47,1.47,0,0,1-.5.09,1.77,1.77,0,0,1-1.3-.54L.54,15.84A1.76,1.76,0,0,1,0,14.54,1.51,1.51,0,0,1,.08,14a3.64,3.64,0,0,1,.17-.42,2.33,2.33,0,0,1,.3-.42c.14-.17.25-.28.32-.35l.39-.36.35-.32a1.85,1.85,0,0,1,1.3-.54,1.9,1.9,0,0,1,.35,0,1.41,1.41,0,0,1,.31.11l.26.11a.94.94,0,0,1,.26.19l.22.19a2.17,2.17,0,0,1,.25.24l.23.24a.93.93,0,0,1,0-1.3l6.66-6.66a.92.92,0,0,1,1.3,0l-.24-.23a2.64,2.64,0,0,1-.24-.25,2.26,2.26,0,0,0-.19-.22,1,1,0,0,1-.19-.26l-.11-.26a1.32,1.32,0,0,1-.11-.32,2,2,0,0,1,0-.34,1.85,1.85,0,0,1,.54-1.3l.32-.35.36-.39L13.2.56a2.26,2.26,0,0,1,.42-.3A3.51,3.51,0,0,1,14,.09a1.47,1.47,0,0,1,.5-.09,1.77,1.77,0,0,1,1.3.54l7.81,7.81a1.77,1.77,0,0,1,.54,1.3,1.52,1.52,0,0,1-.09.5,3.69,3.69,0,0,1-.17.42,2.33,2.33,0,0,1-.3.42l-.32.35-.39.36-.34.32a1.89,1.89,0,0,1-1.65.51,1.4,1.4,0,0,1-.32-.11l-.26-.11a.94.94,0,0,1-.26-.19l-.22-.19a2.17,2.17,0,0,1-.25-.24l-.23-.24a.93.93,0,0,1,0,1.3L17,15.16l4.9,4.9a2.55,2.55,0,0,1,1.84-.82,2.45,2.45,0,0,1,1.74.71l6.95,6.95a2.45,2.45,0,0,1,.71,1.74"/></g></g></svg>