<svg id="main_logo" xmlns="http://www.w3.org/2000/svg" viewBox="0 0 187 75.47"><title>main_logo_1</title><g id="Слой_2" data-name="Слой 2"><g id="Слой_1-2" data-name="Слой 1"><path d="M30.71,10.51c-3.9,0-5.86,3.61-5.86,7.62s2.11,7.4,5.83,7.4,5.86-3.45,5.86-7.59C36.54,14.31,34.64,10.51,30.71,10.51Z"/><path d="M46.79,10.56a9.73,9.73,0,0,0-2.33.22v6.67h2.41C49.4,17.45,51,16.07,51,14,51,11.62,49.29,10.59,46.79,10.56Z"/><path d="M102.88,0H0V73.51s14.75.86,23.34,0,11.43-13,19.78-20.64C62,35.68,74.93,38.26,90.84,34S102.88,0,102.88,0ZM20,10.86H12.56v6.08h6.92v2H12.56v8.27H10.2V8.88H20Zm10.5,16.6c-4.83,0-8.22-3.74-8.22-9.27,0-5.8,3.61-9.6,8.49-9.6S39,12.41,39,17.83C39,24.13,35.21,27.46,30.55,27.46Zm21-.3a23.59,23.59,0,0,1-1.22-4.37c-.54-2.52-1.52-3.47-3.66-3.55H44.46v7.92H42.1v-18a24.58,24.58,0,0,1,4.53-.38c2.52,0,4.15.46,5.29,1.49a4.55,4.55,0,0,1,1.44,3.47,4.8,4.8,0,0,1-3.44,4.66v.08c1.41.49,2.25,1.79,2.68,3.69a29.1,29.1,0,0,0,1.41,5ZM68.38,10.89H62.8V27.16H60.41V10.89H54.85v-2H68.38ZM80.7,27.16H70.42V8.88h9.87v2H72.78v5.78h7.11v2H72.78v6.59H80.7Z"/><path d="M82.85,51.55a7.61,7.61,0,0,0,1.87.18c2.72,0,4.38-1.32,4.38-3.74S87.46,44.57,85,44.57a9.54,9.54,0,0,0-2.13.18Zm-2.26-8.43a26.12,26.12,0,0,1,4.33-.34,7.19,7.19,0,0,1,4.9,1.45,4.7,4.7,0,0,1,1.53,3.66A5.14,5.14,0,0,1,90,51.63a7.24,7.24,0,0,1-5.35,1.92,7.76,7.76,0,0,1-1.82-.16v7H80.59Z"/><rect x="94.39" y="42.91" width="2.26" height="17.49"/><path d="M109.15,53.14l-1.71-5c-.39-1.14-.65-2.18-.91-3.19h-.05c-.26,1-.54,2.1-.88,3.17l-1.71,5.06Zm-5.73,1.76-1.82,5.5H99.27l5.94-17.49h2.73l6,17.49h-2.41l-1.87-5.5Z"/><path d="M116.47,60.4V42.91h2.46l5.61,8.85a49.65,49.65,0,0,1,3.14,5.68l.05,0c-.21-2.34-.26-4.46-.26-7.19V42.91h2.13V60.4h-2.28l-5.55-8.87a55.51,55.51,0,0,1-3.27-5.84l-.08,0c.13,2.21.18,4.31.18,7.22V60.4Z"/><path d="M134.92,51.76c0,3.74,2,7.08,5.58,7.08s5.61-3.3,5.61-7.27c0-3.48-1.82-7.11-5.58-7.11s-5.61,3.45-5.61,7.29m13.57-.29c0,6-3.66,9.21-8.12,9.21-4.62,0-7.86-3.58-7.86-8.87,0-5.55,3.45-9.19,8.12-9.19s7.86,3.66,7.86,8.85"/><path d="M44.44,66.88h1.32l1.07,3c.15.44.4,1.16.54,1.62h0c.13-.44.46-1.38.69-2l1-2.57h1.33l.41,5.9h-1L49.62,70c0-.63-.09-1.39-.11-2.11h0c-.16.54-.32,1-.65,1.91l-1.13,3h-.78l-1-2.91c-.18-.56-.44-1.41-.58-2h0c0,.7-.06,1.47-.1,2.12L45,72.78H44Z"/><path d="M52.49,66.88l1.29,3.48c.13.39.28.85.38,1.21h0c.11-.35.23-.8.38-1.23l1.17-3.46h1.13l-1.61,4.2c-.77,2-1.29,3.06-2,3.69a2.91,2.91,0,0,1-1.31.69l-.27-.9a2.85,2.85,0,0,0,.94-.52,3.26,3.26,0,0,0,.9-1.2.75.75,0,0,0,.09-.25.92.92,0,0,0-.07-.28l-2.18-5.43Z"/><path d="M58.39,69.35h.51c.9,0,1.51-.41,1.51-1s-.48-.85-1.15-.85a2.84,2.84,0,0,0-1.42.42l-.27-.66a3.75,3.75,0,0,1,2-.54c.9,0,2,.4,2,1.55a1.5,1.5,0,0,1-1.33,1.34v0a1.57,1.57,0,0,1,1.61,1.47c0,1.28-1.3,1.75-2.55,1.75a4,4,0,0,1-1.91-.48l.28-.72a3.4,3.4,0,0,0,1.56.4c.89,0,1.45-.43,1.45-1,0-.79-.83-1-1.72-1h-.54Z"/><path d="M69.49,72.78H68.43v-5.9h1.06ZM64.18,72a5.84,5.84,0,0,0,.74,0c.82,0,1.71-.34,1.71-1.26s-.85-1.24-1.66-1.24a4.81,4.81,0,0,0-.79.06Zm0-5.15v2a5,5,0,0,1,1-.07c1.27,0,2.55.52,2.55,2a1.67,1.67,0,0,1-.61,1.36,3.72,3.72,0,0,1-2.38.68,14.8,14.8,0,0,1-1.58-.09V66.88Z"/><path d="M72.3,66.88v2.56h.26l2.22-2.56h1.3l-2.57,2.67c1,.1,1.52.73,2,1.79a12.61,12.61,0,0,0,.63,1.44H75a7.73,7.73,0,0,1-.55-1.21,1.91,1.91,0,0,0-2-1.39H72.3v2.59H71.24v-5.9Z"/><path d="M80.3,69.77c-1.17,0-2.5.18-2.5,1.33a1,1,0,0,0,1,1,1.47,1.47,0,0,0,1.43-1,1.13,1.13,0,0,0,.06-.34Zm.16,3L80.38,72h0a2.2,2.2,0,0,1-1.8.88,1.68,1.68,0,0,1-1.8-1.69C76.73,69.79,78,69,80.28,69V68.9a1.22,1.22,0,0,0-1.34-1.36A2.93,2.93,0,0,0,77.4,68l-.24-.71a3.65,3.65,0,0,1,1.94-.52c1.8,0,2.24,1.23,2.24,2.41v2.21a8.32,8.32,0,0,0,.1,1.41Z"/><path d="M87.56,66.88v5.9H86.5V67.72h-2v1.53c0,1.66-.16,2.76-.93,3.26a1.72,1.72,0,0,1-1.17.37L82.27,72a1.34,1.34,0,0,0,.58-.24c.55-.4.61-1.23.61-2.55V66.88Z"/><path d="M90.35,72a6.06,6.06,0,0,0,.79,0c.8,0,1.84-.27,1.84-1.26s-1.07-1.24-1.86-1.24a5,5,0,0,0-.77.06Zm0-5.15v2a5.94,5.94,0,0,1,1-.06c1.33,0,2.73.41,2.73,2a1.67,1.67,0,0,1-.62,1.35,4.1,4.1,0,0,1-2.56.68,14.8,14.8,0,0,1-1.58-.09V66.88Z"/><polygon points="96.41 66.88 96.41 69.25 99.21 69.25 99.21 66.88 100.27 66.88 100.27 72.78 99.21 72.78 99.21 70.11 96.41 70.11 96.41 72.78 95.35 72.78 95.35 66.88 96.41 66.88"/><path d="M108.37,72.78h-1.06v-5.9h1.06ZM103.06,72a5.84,5.84,0,0,0,.74,0c.82,0,1.71-.34,1.71-1.26s-.85-1.24-1.66-1.24a4.81,4.81,0,0,0-.79.06Zm0-5.15v2a5,5,0,0,1,1-.07c1.27,0,2.55.52,2.55,2a1.67,1.67,0,0,1-.61,1.36,3.72,3.72,0,0,1-2.38.68,14.8,14.8,0,0,1-1.58-.09V66.88Z"/><path d="M113.86,69.25a1.53,1.53,0,0,0-1.49-1.74,1.78,1.78,0,0,0-1.65,1.74Zm-3.14.77a1.89,1.89,0,0,0,2,2,3.89,3.89,0,0,0,1.63-.3l.18.77a4.78,4.78,0,0,1-2,.37,2.74,2.74,0,0,1-2.9-3c0-1.78,1-3.18,2.76-3.18a2.5,2.5,0,0,1,2.44,2.78,4,4,0,0,1,0,.5Z"/><path d="M119.79,66.88v2.49c0,.94,0,1.52-.06,2.36h0c.35-.72.56-1.13.95-1.82l1.84-3h1.25v5.9h-1v-2.5c0-1,0-1.46.07-2.41h0c-.38.76-.63,1.23-1,1.83-.56.91-1.21,2-1.84,3.08h-1.23v-5.9Z"/><polygon points="126.58 66.88 126.58 69.25 129.38 69.25 129.38 66.88 130.44 66.88 130.44 72.78 129.38 72.78 129.38 70.11 126.58 70.11 126.58 72.78 125.52 72.78 125.52 66.88 126.58 66.88"/><path d="M136.4,72.55a4,4,0,0,1-1.69.34,2.8,2.8,0,0,1-2.94-3,3,3,0,0,1,3.17-3.13,3.59,3.59,0,0,1,1.49.31l-.24.83a2.49,2.49,0,0,0-1.24-.28,2.22,2.22,0,0,0,0,4.43,3,3,0,0,0,1.31-.29Z"/><polygon points="141.83 66.88 141.83 67.73 139.99 67.73 139.99 72.78 138.93 72.78 138.93 67.73 137.09 67.73 137.09 66.88 141.83 66.88"/><path d="M143.82,70.37a2.38,2.38,0,0,0,0,.44,1.65,1.65,0,0,0,1.61,1.25c1.13,0,1.79-.93,1.79-2.28,0-1.18-.62-2.19-1.75-2.19a1.86,1.86,0,0,0-1.69,1.77Zm-1.06-1.57c0-.75,0-1.36,0-1.92h1l0,1h0a2.32,2.32,0,0,1,2.09-1.14c1.43,0,2.5,1.21,2.5,3,0,2.12-1.29,3.17-2.68,3.17a2.07,2.07,0,0,1-1.82-.93h0v3.2h-1.06Z"/><path d="M150,66.88l1.29,3.48c.13.39.28.85.38,1.21h0c.11-.35.23-.8.38-1.23l1.17-3.46h1.13l-1.61,4.2c-.77,2-1.29,3.06-2,3.69a2.91,2.91,0,0,1-1.32.69l-.27-.9a2.85,2.85,0,0,0,.94-.52,3.26,3.26,0,0,0,.9-1.2.75.75,0,0,0,.09-.25.92.92,0,0,0-.07-.28l-2.18-5.43Z"/><path d="M155.3,66.88h1.32l1.07,3c.15.44.4,1.16.54,1.62h0c.13-.44.46-1.38.69-2l.95-2.57h1.33l.41,5.9h-1L160.48,70c0-.63-.09-1.39-.11-2.11h0c-.16.54-.32,1-.65,1.91l-1.13,3h-.78l-1-2.91c-.18-.56-.44-1.41-.58-2h0c0,.7-.06,1.47-.1,2.12l-.15,2.79h-1Z"/><path d="M166.76,69.25a1.53,1.53,0,0,0-1.49-1.74,1.78,1.78,0,0,0-1.65,1.74Zm-3.14.77a1.89,1.89,0,0,0,2,2,3.89,3.89,0,0,0,1.63-.3l.18.77a4.78,4.78,0,0,1-2,.37,2.74,2.74,0,0,1-2.9-3c0-1.78,1-3.18,2.76-3.18a2.5,2.5,0,0,1,2.44,2.78,4.05,4.05,0,0,1,0,.5Z"/><polygon points="170.16 66.88 170.16 69.25 172.96 69.25 172.96 66.88 174.02 66.88 174.02 72.78 172.96 72.78 172.96 70.11 170.16 70.11 170.16 72.78 169.1 72.78 169.1 66.88 170.16 66.88"/><polygon points="179.72 66.88 179.72 67.73 177.88 67.73 177.88 72.78 176.82 72.78 176.82 67.73 174.98 67.73 174.98 66.88 179.72 66.88"/><path d="M187,72.78h-1.06v-5.9H187ZM181.69,72a5.84,5.84,0,0,0,.74,0c.82,0,1.71-.34,1.71-1.26s-.85-1.24-1.66-1.24a4.81,4.81,0,0,0-.79.06Zm0-5.15v2a5,5,0,0,1,1-.07c1.27,0,2.55.52,2.55,2a1.67,1.67,0,0,1-.61,1.36,3.72,3.72,0,0,1-2.38.68,14.8,14.8,0,0,1-1.58-.09V66.88Z"/></g></g></svg>